<svg xmlns="http://www.w3.org/2000/svg" xmlns:xlink="http://www.w3.org/1999/xlink" width="500" zoomAndPan="magnify" viewBox="0 0 375 374.999991" height="500" preserveAspectRatio="xMidYMid meet" version="1.0"><defs><clipPath id="f92eb9e9e2"><path d="M 60.210938 60.210938 L 314.789062 60.210938 L 314.789062 314.789062 L 60.210938 314.789062 Z M 60.210938 60.210938 " clip-rule="nonzero"/></clipPath><clipPath id="c2cadf3ccf"><path d="M 187.5 60.210938 C 117.203125 60.210938 60.210938 117.203125 60.210938 187.5 C 60.210938 257.796875 117.203125 314.789062 187.5 314.789062 C 257.796875 314.789062 314.789062 257.796875 314.789062 187.5 C 314.789062 117.203125 257.796875 60.210938 187.5 60.210938 Z M 187.5 60.210938 " clip-rule="nonzero"/></clipPath></defs><path fill="#ffffff" d="M 188.96875 228.132812 C 183.289062 228.132812 178.6875 232.734375 178.6875 238.414062 L 178.6875 310.769531 C 178.6875 311.847656 179.570312 312.726562 180.644531 312.726562 C 181.722656 312.726562 182.605469 311.847656 182.605469 310.769531 L 182.605469 238.414062 C 182.605469 234.890625 185.445312 232.050781 188.96875 232.050781 C 192.492188 232.050781 195.332031 234.890625 195.332031 238.414062 L 195.332031 310.769531 C 195.332031 311.847656 196.214844 312.726562 197.292969 312.726562 C 198.367188 312.726562 199.25 311.847656 199.25 310.769531 L 199.25 238.414062 C 199.25 232.734375 194.648438 228.132812 188.96875 228.132812 M 217.851562 228.132812 C 212.171875 228.132812 207.570312 232.734375 207.570312 238.414062 L 207.570312 308.617188 C 207.570312 309.691406 208.453125 310.574219 209.53125 310.574219 C 210.605469 310.574219 211.488281 309.691406 211.488281 308.617188 L 211.488281 238.414062 C 211.488281 234.890625 214.328125 232.050781 217.851562 232.050781 C 221.378906 232.050781 224.214844 234.890625 224.214844 238.414062 L 224.214844 302.9375 C 224.214844 304.015625 225.097656 304.894531 226.175781 304.894531 C 227.25 304.894531 228.132812 304.015625 228.132812 302.9375 L 228.132812 238.414062 C 228.132812 232.734375 223.53125 228.132812 217.851562 228.132812 Z M 187.5 0 C 84.105469 0 0 84.105469 0 187.5 C 0 290.894531 84.105469 375 187.5 375 C 290.894531 375 375 290.894531 375 187.5 C 374.902344 84.105469 290.894531 0 187.5 0 Z M 187.5 370.398438 C 86.554688 370.398438 4.503906 288.25 4.503906 187.402344 C 4.503906 86.554688 86.554688 4.40625 187.5 4.40625 C 288.445312 4.40625 370.496094 86.554688 370.496094 187.402344 C 370.496094 288.347656 288.445312 370.398438 187.5 370.398438 Z M 358.746094 196.019531 L 350.128906 195.136719 C 349.542969 195.039062 348.957031 195.234375 348.464844 195.625 C 347.976562 196.019531 347.683594 196.605469 347.683594 197.191406 L 347.585938 198.5625 L 340.730469 197.78125 L 341.121094 187.890625 L 347.878906 187.695312 L 347.878906 189.164062 C 347.878906 189.753906 348.074219 190.339844 348.5625 190.730469 C 348.957031 191.121094 349.542969 191.417969 350.128906 191.417969 L 359.039062 191.417969 C 359.628906 191.417969 360.214844 191.121094 360.605469 190.730469 C 361 190.339844 361.292969 189.652344 361.195312 189.066406 L 360.507812 174.28125 C 360.410156 173.105469 359.433594 172.128906 358.257812 172.128906 L 349.542969 172.421875 C 348.957031 172.421875 348.367188 172.714844 347.976562 173.105469 C 347.585938 173.597656 347.390625 174.183594 347.390625 174.773438 L 347.488281 176.140625 L 340.632812 176.339844 L 339.652344 166.449219 L 346.3125 165.273438 L 346.507812 166.644531 C 346.605469 167.230469 346.898438 167.722656 347.390625 168.113281 C 347.878906 168.503906 348.464844 168.601562 349.054688 168.503906 L 357.867188 167.332031 C 358.453125 167.230469 359.039062 166.9375 359.335938 166.449219 C 359.726562 165.960938 359.824219 165.371094 359.726562 164.785156 L 356.984375 150.292969 C 356.789062 149.117188 355.613281 148.335938 354.4375 148.53125 L 345.824219 150 C 345.234375 150.097656 344.746094 150.488281 344.355469 150.980469 C 344.058594 151.46875 343.863281 152.054688 344.058594 152.644531 L 344.355469 154.015625 L 337.597656 155.1875 L 335.25 145.496094 L 341.710938 143.441406 L 342.101562 144.8125 C 342.296875 145.398438 342.6875 145.886719 343.179688 146.179688 C 343.667969 146.476562 344.257812 146.574219 344.84375 146.378906 L 353.460938 143.929688 C 354.046875 143.734375 354.535156 143.34375 354.832031 142.851562 C 355.125 142.363281 355.125 141.675781 354.929688 141.089844 L 350.226562 127.089844 C 349.835938 125.914062 348.5625 125.328125 347.390625 125.71875 L 339.066406 128.363281 C 338.480469 128.558594 337.988281 128.949219 337.792969 129.535156 C 337.5 130.125 337.5 130.710938 337.695312 131.300781 L 338.183594 132.570312 L 331.625 134.628906 L 328.003906 125.425781 L 334.074219 122.488281 L 334.660156 123.757812 C 334.855469 124.347656 335.347656 124.738281 335.933594 124.933594 C 336.519531 125.128906 337.109375 125.128906 337.597656 124.933594 L 345.722656 121.3125 C 346.3125 121.019531 346.703125 120.625 346.898438 120.039062 C 347.09375 119.453125 347.09375 118.863281 346.800781 118.277344 L 340.242188 105.058594 C 339.652344 103.980469 338.382812 103.492188 337.304688 104.078125 L 329.472656 107.898438 C 328.882812 108.191406 328.492188 108.679688 328.296875 109.171875 C 328.101562 109.757812 328.199219 110.347656 328.492188 110.933594 L 329.078125 112.109375 L 322.910156 115.046875 L 318.015625 106.429688 L 323.597656 102.609375 L 324.378906 103.785156 C 324.671875 104.277344 325.164062 104.667969 325.75 104.765625 C 326.339844 104.863281 326.925781 104.765625 327.414062 104.472656 L 334.953125 99.773438 C 335.445312 99.476562 335.835938 98.890625 335.933594 98.304688 C 336.03125 97.714844 335.933594 97.128906 335.542969 96.539062 L 327.121094 84.398438 C 326.4375 83.421875 325.066406 83.125 324.085938 83.8125 L 316.839844 88.707031 C 316.351562 89 315.960938 89.589844 315.863281 90.175781 C 315.765625 90.765625 315.863281 91.351562 316.253906 91.839844 L 317.035156 92.917969 L 311.359375 96.734375 L 305.289062 88.902344 L 310.28125 84.398438 L 311.160156 85.476562 C 311.554688 85.964844 312.042969 86.257812 312.628906 86.257812 C 313.21875 86.359375 313.804688 86.160156 314.296875 85.769531 L 321.148438 80.089844 C 321.636719 79.699219 321.933594 79.113281 321.933594 78.523438 C 321.933594 77.9375 321.738281 77.351562 321.34375 76.859375 L 311.554688 65.992188 C 310.769531 65.109375 309.300781 65.011719 308.421875 65.796875 L 301.957031 71.671875 C 301.46875 72.0625 301.273438 72.648438 301.175781 73.238281 C 301.175781 73.824219 301.371094 74.414062 301.761719 74.902344 L 302.742188 75.882812 L 297.648438 80.484375 L 290.503906 73.53125 L 294.8125 68.34375 L 295.886719 69.320312 C 296.28125 69.710938 296.867188 69.910156 297.453125 69.910156 C 298.042969 69.910156 298.628906 69.613281 299.019531 69.222656 L 304.992188 62.664062 C 305.386719 62.171875 305.582031 61.585938 305.582031 61 C 305.582031 60.410156 305.289062 59.824219 304.796875 59.433594 L 293.34375 50.03125 C 292.363281 49.25 290.992188 49.347656 290.207031 50.328125 L 284.628906 56.984375 C 284.234375 57.472656 284.039062 58.0625 284.136719 58.648438 C 284.234375 59.234375 284.53125 59.824219 285.019531 60.214844 L 286.097656 61.097656 L 281.691406 66.285156 L 273.660156 60.410156 L 277.285156 54.632812 L 278.460938 55.417969 C 278.949219 55.710938 279.535156 55.90625 280.125 55.808594 C 280.710938 55.710938 281.199219 55.320312 281.59375 54.832031 L 286.585938 47.488281 C 286.878906 46.996094 287.074219 46.410156 286.878906 45.722656 C 286.78125 45.136719 286.390625 44.648438 285.902344 44.257812 L 273.269531 36.519531 C 272.191406 35.933594 270.921875 36.226562 270.234375 37.207031 L 265.632812 44.550781 C 265.339844 45.039062 265.242188 45.722656 265.339844 46.214844 C 265.4375 46.800781 265.828125 47.292969 266.417969 47.585938 L 267.589844 48.269531 L 263.96875 54.046875 L 255.253906 49.347656 L 257.996094 43.179688 L 259.269531 43.765625 C 259.757812 44.058594 260.445312 44.058594 260.933594 43.863281 C 261.519531 43.667969 261.914062 43.277344 262.207031 42.789062 L 266.121094 34.855469 C 266.417969 34.269531 266.417969 33.679688 266.21875 33.09375 C 266.023438 32.507812 265.535156 32.015625 265.046875 31.820312 L 251.535156 25.945312 C 250.457031 25.457031 249.085938 25.945312 248.597656 27.121094 L 245.070312 35.050781 C 244.777344 35.640625 244.777344 36.226562 245.070312 36.816406 C 245.269531 37.402344 245.757812 37.792969 246.34375 38.085938 L 247.617188 38.578125 L 244.777344 44.84375 L 235.476562 41.417969 L 237.335938 34.953125 L 238.707031 35.445312 C 239.296875 35.640625 239.882812 35.542969 240.371094 35.347656 C 240.863281 35.050781 241.253906 34.660156 241.449219 34.074219 L 244.289062 25.652344 C 244.484375 25.066406 244.386719 24.476562 244.09375 23.890625 C 243.800781 23.402344 243.308594 22.910156 242.722656 22.8125 L 228.523438 18.898438 C 227.351562 18.601562 226.175781 19.289062 225.785156 20.464844 L 223.335938 28.882812 C 223.140625 29.472656 223.238281 30.058594 223.53125 30.644531 C 223.824219 31.136719 224.316406 31.527344 224.902344 31.722656 L 226.175781 32.015625 L 224.214844 38.578125 L 214.523438 36.421875 L 215.503906 29.765625 L 216.875 30.058594 C 217.460938 30.15625 218.046875 30.058594 218.539062 29.667969 C 219.027344 29.375 219.320312 28.785156 219.417969 28.199219 L 220.984375 19.484375 C 221.082031 18.898438 220.984375 18.308594 220.59375 17.820312 C 220.203125 17.332031 219.710938 17.035156 219.125 16.9375 L 204.4375 14.980469 C 203.265625 14.785156 202.089844 15.664062 201.992188 16.839844 L 200.816406 25.457031 C 200.71875 26.042969 200.914062 26.632812 201.304688 27.121094 C 201.695312 27.609375 202.1875 27.90625 202.871094 28.003906 L 204.242188 28.101562 L 203.265625 34.855469 L 193.179688 33.78125 L 193.179688 27.023438 L 194.648438 27.121094 C 195.234375 27.121094 195.824219 26.925781 196.214844 26.535156 C 196.605469 26.140625 196.898438 25.554688 196.898438 24.96875 L 197.292969 16.058594 C 197.292969 15.46875 197.09375 14.882812 196.703125 14.394531 C 196.3125 14 195.722656 13.707031 195.039062 13.707031 L 180.253906 13.902344 C 179.078125 13.902344 178.101562 14.882812 178.101562 16.15625 L 178.101562 24.871094 C 178.101562 25.457031 178.394531 26.042969 178.785156 26.4375 C 179.175781 26.828125 179.765625 27.023438 180.449219 27.023438 L 181.820312 27.023438 L 181.820312 33.878906 L 171.933594 34.464844 L 170.953125 27.808594 L 172.324219 27.707031 C 172.910156 27.609375 173.5 27.316406 173.792969 26.925781 C 174.183594 26.4375 174.378906 25.847656 174.28125 25.261719 L 173.402344 16.449219 C 173.304688 15.863281 173.007812 15.273438 172.519531 14.882812 C 172.03125 14.492188 171.441406 14.394531 170.855469 14.394531 L 156.265625 16.546875 C 155.089844 16.742188 154.210938 17.820312 154.40625 19.09375 L 155.582031 27.707031 C 155.679688 28.296875 155.972656 28.882812 156.460938 29.175781 C 156.953125 29.570312 157.539062 29.667969 158.125 29.570312 L 159.496094 29.375 L 160.378906 36.128906 L 150.683594 38.085938 L 148.824219 31.625 L 150.195312 31.332031 C 150.785156 31.234375 151.273438 30.84375 151.566406 30.351562 C 151.859375 29.863281 151.957031 29.277344 151.859375 28.6875 L 149.707031 20.070312 C 149.609375 19.484375 149.214844 18.996094 148.628906 18.699219 C 148.140625 18.40625 147.453125 18.308594 146.867188 18.503906 L 132.667969 22.714844 C 131.496094 23.105469 130.808594 24.28125 131.199219 25.457031 L 133.550781 33.878906 C 133.746094 34.464844 134.136719 34.953125 134.628906 35.25 C 135.117188 35.542969 135.804688 35.542969 136.390625 35.445312 L 137.664062 35.050781 L 139.523438 41.613281 L 130.125 44.941406 L 127.382812 38.773438 L 128.753906 38.285156 C 129.339844 38.085938 129.730469 37.597656 129.929688 37.109375 C 130.125 36.519531 130.125 35.933594 129.929688 35.445312 L 126.597656 27.21875 C 126.402344 26.632812 125.914062 26.238281 125.328125 25.945312 C 124.738281 25.75 124.152344 25.75 123.5625 25.945312 L 110.347656 31.820312 C 109.269531 32.3125 108.78125 33.679688 109.269531 34.757812 L 112.792969 42.6875 C 112.988281 43.277344 113.480469 43.667969 114.066406 43.863281 C 114.652344 44.058594 115.242188 44.058594 115.828125 43.765625 L 117.003906 43.179688 L 119.746094 49.445312 L 110.933594 54.046875 L 107.3125 48.269531 L 108.582031 47.585938 C 109.074219 47.292969 109.464844 46.800781 109.660156 46.214844 C 109.855469 45.625 109.757812 45.039062 109.464844 44.550781 L 105.058594 36.816406 C 104.765625 36.324219 104.277344 35.933594 103.6875 35.738281 C 103.101562 35.640625 102.511719 35.738281 101.925781 36.03125 L 89.492188 43.960938 C 88.414062 44.648438 88.121094 46.019531 88.804688 46.996094 L 93.40625 54.339844 C 93.699219 54.832031 94.289062 55.222656 94.875 55.320312 C 95.464844 55.417969 96.050781 55.320312 96.539062 55.027344 L 97.714844 54.242188 L 101.339844 60.117188 L 93.210938 65.894531 L 88.902344 60.703125 L 90.078125 59.824219 C 90.566406 59.433594 90.863281 58.941406 90.960938 58.355469 C 91.058594 57.769531 90.863281 57.179688 90.46875 56.691406 L 84.988281 49.640625 C 84.59375 49.152344 84.105469 48.859375 83.421875 48.761719 C 82.832031 48.660156 82.246094 48.859375 81.757812 49.25 L 70.496094 58.84375 C 69.613281 59.628906 69.417969 61 70.203125 61.976562 L 75.785156 68.636719 C 76.175781 69.125 76.761719 69.417969 77.351562 69.417969 C 77.9375 69.417969 78.523438 69.222656 79.015625 68.832031 L 79.992188 67.949219 L 84.398438 73.238281 L 77.25 80.089844 L 72.257812 75.585938 L 73.238281 74.609375 C 73.628906 74.214844 73.921875 73.628906 73.824219 73.042969 C 73.824219 72.453125 73.53125 71.867188 73.140625 71.476562 L 66.777344 65.308594 C 66.382812 64.914062 65.699219 64.621094 65.109375 64.71875 C 64.523438 64.71875 63.9375 65.011719 63.542969 65.503906 L 53.753906 76.566406 C 52.96875 77.449219 53.066406 78.917969 53.949219 79.699219 L 60.410156 85.574219 C 60.902344 85.964844 61.488281 86.160156 62.074219 86.160156 C 62.664062 86.160156 63.25 85.867188 63.640625 85.378906 L 64.523438 84.300781 L 69.613281 88.902344 L 63.445312 96.734375 L 57.867188 92.917969 L 58.746094 91.742188 C 59.136719 91.253906 59.234375 90.664062 59.136719 90.078125 C 59.039062 89.492188 58.746094 89 58.257812 88.609375 L 51.109375 83.324219 C 50.621094 82.929688 50.03125 82.832031 49.445312 82.929688 C 48.859375 83.027344 48.269531 83.421875 47.976562 83.910156 L 39.851562 96.246094 C 39.164062 97.226562 39.457031 98.597656 40.4375 99.28125 L 47.683594 104.175781 C 48.171875 104.472656 48.761719 104.667969 49.347656 104.472656 C 49.933594 104.375 50.425781 103.980469 50.816406 103.492188 L 51.5 102.316406 L 57.179688 106.136719 L 52.1875 114.75 L 46.117188 111.816406 L 46.800781 110.542969 C 47.09375 110.050781 47.191406 109.367188 46.996094 108.878906 C 46.800781 108.289062 46.410156 107.800781 45.921875 107.605469 L 38.085938 103.394531 C 37.597656 103.101562 36.914062 103.003906 36.324219 103.199219 C 35.738281 103.394531 35.246094 103.785156 35.050781 104.375 L 28.6875 117.6875 C 28.199219 118.765625 28.589844 120.136719 29.765625 120.625 L 37.597656 124.445312 C 38.183594 124.738281 38.773438 124.738281 39.359375 124.542969 C 39.949219 124.347656 40.339844 123.957031 40.632812 123.367188 L 41.21875 122.09375 L 47.390625 125.128906 L 43.570312 134.335938 L 37.109375 132.277344 L 37.597656 130.90625 C 37.792969 130.320312 37.792969 129.730469 37.5 129.242188 C 37.207031 128.753906 36.816406 128.265625 36.226562 128.066406 L 27.90625 124.933594 C 27.316406 124.738281 26.730469 124.738281 26.140625 125.03125 C 25.554688 125.328125 25.164062 125.816406 24.96875 126.402344 L 20.5625 140.503906 C 20.167969 141.675781 20.855469 142.949219 22.03125 143.242188 L 30.351562 145.984375 C 30.941406 146.179688 31.527344 146.082031 32.113281 145.789062 C 32.605469 145.496094 32.996094 145.007812 33.191406 144.417969 L 33.582031 143.144531 L 40.046875 145.300781 L 37.597656 154.894531 L 30.941406 153.71875 L 31.234375 152.351562 C 31.332031 151.761719 31.234375 151.175781 30.941406 150.683594 C 30.644531 150.195312 30.15625 149.804688 29.570312 149.707031 L 20.855469 147.847656 C 20.269531 147.746094 19.679688 147.847656 19.09375 148.140625 C 18.601562 148.433594 18.210938 149.019531 18.113281 149.609375 L 15.664062 164.195312 C 15.46875 165.371094 16.253906 166.546875 17.429688 166.742188 L 26.042969 168.210938 C 26.632812 168.308594 27.21875 168.210938 27.707031 167.820312 C 28.199219 167.429688 28.492188 166.9375 28.589844 166.351562 L 28.785156 164.980469 L 35.542969 166.253906 L 34.464844 176.140625 L 27.707031 175.945312 L 27.808594 174.476562 C 27.808594 173.890625 27.707031 173.304688 27.316406 172.8125 C 26.925781 172.324219 26.339844 172.128906 25.75 172.03125 L 16.839844 171.34375 C 16.253906 171.34375 15.664062 171.539062 15.175781 171.933594 C 14.6875 172.324219 14.492188 172.910156 14.492188 173.5 L 13.804688 188.480469 C 13.804688 189.652344 14.6875 190.730469 15.960938 190.730469 L 24.671875 191.023438 C 25.261719 191.023438 25.847656 190.828125 26.339844 190.4375 C 26.730469 190.046875 27.023438 189.457031 27.023438 188.871094 L 27.023438 187.5 L 33.878906 187.792969 L 34.171875 197.78125 L 27.414062 198.464844 L 27.316406 196.996094 C 27.316406 196.410156 27.023438 195.824219 26.535156 195.429688 C 26.042969 195.039062 25.554688 194.84375 24.96875 194.84375 L 16.058594 195.429688 C 15.46875 195.429688 14.882812 195.722656 14.492188 196.214844 C 14.097656 196.703125 13.902344 197.292969 14 197.878906 L 15.664062 212.566406 C 15.765625 213.738281 16.9375 214.621094 18.113281 214.523438 L 26.730469 213.640625 C 27.316406 213.542969 27.90625 213.25 28.296875 212.761719 C 28.6875 212.273438 28.785156 211.683594 28.785156 211.097656 L 28.589844 209.726562 L 35.445312 209.039062 L 37.109375 218.832031 L 30.546875 220.496094 L 30.253906 219.125 C 30.15625 218.539062 29.765625 218.046875 29.277344 217.753906 C 28.785156 217.460938 28.199219 217.363281 27.609375 217.460938 L 18.898438 219.222656 C 18.308594 219.320312 17.820312 219.710938 17.429688 220.203125 C 17.132812 220.691406 17.035156 221.378906 17.132812 221.964844 L 20.855469 236.261719 C 21.148438 237.433594 22.324219 238.121094 23.5 237.828125 L 31.917969 235.671875 C 32.507812 235.574219 32.996094 235.183594 33.289062 234.59375 C 33.582031 234.105469 33.679688 233.421875 33.484375 232.832031 L 33.09375 231.558594 L 39.75 229.894531 L 42.789062 239.394531 L 36.519531 241.9375 L 36.03125 240.566406 C 35.835938 239.980469 35.445312 239.589844 34.855469 239.296875 C 34.367188 239 33.679688 239 33.191406 239.195312 L 24.773438 242.230469 C 24.183594 242.429688 23.695312 242.820312 23.5 243.40625 C 23.203125 243.996094 23.203125 244.582031 23.5 245.167969 L 29.175781 258.78125 C 29.667969 259.953125 30.941406 260.445312 32.015625 259.953125 L 40.144531 256.722656 C 40.730469 256.527344 41.121094 256.039062 41.417969 255.449219 C 41.613281 254.863281 41.613281 254.277344 41.417969 253.6875 L 40.828125 252.414062 L 47.191406 249.871094 L 51.5 258.878906 L 45.625 262.304688 L 44.941406 261.03125 C 44.648438 260.542969 44.15625 260.148438 43.667969 259.953125 C 43.082031 259.757812 42.492188 259.855469 42.003906 260.148438 L 34.171875 264.261719 C 33.679688 264.554688 33.191406 265.046875 33.09375 265.632812 C 32.898438 266.222656 32.996094 266.808594 33.289062 267.394531 L 40.828125 280.125 C 41.417969 281.199219 42.789062 281.496094 43.863281 280.90625 L 51.402344 276.597656 C 51.894531 276.304688 52.285156 275.816406 52.480469 275.230469 C 52.578125 274.640625 52.578125 274.054688 52.1875 273.464844 L 51.5 272.292969 L 57.472656 268.863281 L 62.957031 277.1875 L 57.667969 281.398438 L 56.886719 280.222656 C 56.496094 279.734375 56.003906 279.4375 55.417969 279.339844 C 54.832031 279.242188 54.242188 279.339844 53.753906 279.734375 L 46.507812 284.921875 C 46.019531 285.3125 45.722656 285.804688 45.625 286.390625 C 45.527344 286.976562 45.722656 287.566406 46.117188 288.054688 L 55.320312 299.609375 C 56.101562 300.585938 57.472656 300.683594 58.453125 300 L 65.308594 294.613281 C 65.796875 294.222656 66.089844 293.734375 66.1875 293.046875 C 66.285156 292.460938 66.089844 291.875 65.699219 291.382812 L 64.816406 290.308594 L 70.203125 286.097656 L 76.761719 293.539062 L 72.0625 298.433594 L 71.082031 297.355469 C 70.691406 296.964844 70.105469 296.671875 69.515625 296.671875 C 68.929688 296.671875 68.34375 296.867188 67.949219 297.257812 L 61.488281 303.425781 C 61.097656 303.820312 60.804688 304.40625 60.804688 304.992188 C 60.804688 305.582031 61.097656 306.167969 61.488281 306.558594 L 72.257812 316.742188 C 73.140625 317.625 74.511719 317.527344 75.390625 316.644531 L 81.460938 310.378906 C 81.855469 309.988281 82.148438 309.398438 82.050781 308.714844 C 82.050781 308.125 81.753906 307.539062 81.363281 307.148438 L 80.386719 306.265625 L 85.183594 301.371094 L 92.722656 307.832031 L 88.707031 313.316406 L 87.335938 312.828125 C 86.847656 312.433594 86.261719 312.335938 85.671875 312.335938 C 85.085938 312.433594 84.59375 312.726562 84.203125 313.121094 L 78.71875 320.070312 C 78.328125 320.5625 78.132812 321.148438 78.230469 321.734375 C 78.328125 322.324219 78.621094 322.910156 79.113281 323.203125 L 91.15625 331.722656 C 92.132812 332.410156 93.503906 332.210938 94.289062 331.234375 L 99.378906 324.183594 C 99.773438 323.695312 99.871094 323.105469 99.773438 322.519531 C 99.671875 321.933594 99.28125 321.441406 98.792969 321.050781 L 97.714844 320.269531 L 101.730469 314.785156 L 110.148438 320.070312 L 107.015625 326.042969 L 105.742188 325.359375 C 105.253906 325.066406 104.667969 324.96875 104.078125 325.164062 C 103.492188 325.359375 103.003906 325.652344 102.707031 326.238281 L 98.203125 333.878906 C 97.910156 334.367188 97.8125 335.050781 98.007812 335.640625 C 98.203125 336.226562 98.597656 336.714844 99.085938 337.011719 L 112.207031 343.765625 C 113.285156 344.355469 114.652344 343.960938 115.242188 342.886719 L 119.355469 335.148438 C 119.648438 334.660156 119.648438 333.976562 119.550781 333.386719 C 119.355469 332.800781 118.960938 332.3125 118.375 332.113281 L 117.199219 331.527344 L 120.429688 325.457031 L 129.535156 329.570312 L 127.1875 335.933594 L 125.914062 335.347656 C 125.328125 335.148438 124.738281 335.148438 124.25 335.347656 C 123.660156 335.542969 123.269531 336.03125 123.074219 336.519531 L 119.746094 344.746094 C 119.550781 345.332031 119.550781 345.921875 119.746094 346.507812 C 120.039062 347.09375 120.429688 347.488281 121.019531 347.683594 L 134.921875 352.578125 C 136.097656 352.96875 137.371094 352.382812 137.761719 351.207031 L 140.699219 342.984375 C 140.894531 342.394531 140.894531 341.808594 140.601562 341.21875 C 140.308594 340.632812 139.816406 340.242188 139.328125 340.046875 L 138.054688 339.652344 L 140.40625 333.191406 L 149.902344 336.03125 L 148.53125 342.6875 L 147.160156 342.296875 C 146.574219 342.199219 145.984375 342.199219 145.496094 342.492188 C 145.007812 342.789062 144.613281 343.277344 144.515625 343.863281 L 142.363281 352.480469 C 142.167969 353.066406 142.265625 353.65625 142.65625 354.242188 C 142.949219 354.730469 143.539062 355.125 144.125 355.222656 L 158.617188 358.160156 C 159.792969 358.355469 160.964844 357.667969 161.261719 356.398438 L 163.121094 347.878906 C 163.21875 347.292969 163.121094 346.703125 162.828125 346.214844 C 162.53125 345.722656 161.945312 345.332031 161.359375 345.234375 L 159.988281 345.039062 L 161.457031 338.382812 L 171.246094 339.851562 L 170.757812 346.605469 L 169.386719 346.410156 C 168.800781 346.3125 168.210938 346.507812 167.722656 346.898438 C 167.230469 347.289062 166.9375 347.78125 166.9375 348.367188 L 165.960938 357.179688 C 165.863281 357.765625 166.058594 358.355469 166.449219 358.84375 C 166.839844 359.335938 167.429688 359.628906 168.015625 359.628906 L 182.800781 360.507812 C 184.074219 360.605469 185.050781 359.628906 185.148438 358.453125 L 185.738281 349.738281 C 185.738281 349.152344 185.542969 348.5625 185.148438 348.074219 C 184.757812 347.585938 184.171875 347.390625 183.582031 347.289062 L 182.210938 347.191406 L 182.703125 340.339844 L 192.6875 340.4375 L 193.179688 347.191406 L 191.710938 347.191406 C 191.121094 347.191406 190.535156 347.488281 190.144531 347.878906 C 189.753906 348.269531 189.554688 348.859375 189.554688 349.445312 L 189.851562 358.355469 C 189.851562 358.941406 190.144531 359.53125 190.632812 359.921875 C 191.023438 360.3125 191.613281 360.507812 192.101562 360.507812 C 192.199219 360.507812 192.199219 360.507812 192.296875 360.507812 L 206.984375 359.335938 C 208.160156 359.234375 209.136719 358.160156 209.039062 356.984375 L 208.453125 348.269531 C 208.453125 347.683594 208.160156 347.09375 207.667969 346.703125 C 207.179688 346.3125 206.59375 346.117188 206.003906 346.214844 L 204.632812 346.3125 L 204.242188 339.457031 L 214.132812 338.085938 L 215.503906 344.746094 L 214.132812 344.941406 C 213.542969 345.039062 213.054688 345.332031 212.664062 345.824219 C 212.371094 346.3125 212.171875 346.898438 212.273438 347.488281 L 213.738281 356.300781 C 213.839844 356.886719 214.230469 357.472656 214.71875 357.765625 C 215.207031 358.0625 215.894531 358.257812 216.480469 358.0625 L 230.875 354.832031 C 232.050781 354.535156 232.832031 353.363281 232.539062 352.1875 L 230.777344 343.667969 C 230.679688 343.082031 230.289062 342.589844 229.796875 342.199219 C 229.308594 341.90625 228.621094 341.808594 228.035156 341.90625 L 226.761719 342.199219 L 225.390625 335.445312 L 234.988281 332.800781 L 237.335938 339.164062 L 235.964844 339.554688 C 235.378906 339.75 234.890625 340.144531 234.691406 340.632812 C 234.398438 341.121094 234.398438 341.808594 234.59375 342.296875 L 237.335938 350.816406 C 237.53125 351.402344 237.925781 351.894531 238.511719 352.1875 C 239.097656 352.480469 239.6875 352.480469 240.273438 352.285156 L 254.078125 347.09375 C 255.253906 346.703125 255.84375 345.429688 255.351562 344.253906 L 252.414062 336.03125 C 252.21875 335.445312 251.828125 335.050781 251.238281 334.757812 C 250.652344 334.464844 250.066406 334.464844 249.476562 334.757812 L 248.203125 335.246094 L 245.855469 328.785156 L 254.960938 324.769531 L 258.09375 330.742188 L 256.820312 331.332031 C 256.332031 331.625 255.84375 332.015625 255.644531 332.605469 C 255.449219 333.191406 255.449219 333.78125 255.746094 334.269531 L 259.5625 342.296875 C 259.855469 342.886719 260.347656 343.277344 260.835938 343.472656 C 261.421875 343.667969 262.011719 343.570312 262.597656 343.277344 L 275.523438 336.226562 C 276.597656 335.640625 276.992188 334.269531 276.402344 333.191406 L 272.292969 325.457031 C 271.996094 324.96875 271.507812 324.574219 270.921875 324.378906 C 270.332031 324.183594 269.746094 324.28125 269.15625 324.574219 L 267.984375 325.261719 L 264.851562 319.191406 L 273.269531 314 L 277.285156 319.484375 L 276.109375 320.269531 C 275.621094 320.5625 275.226562 321.148438 275.128906 321.636719 C 275.03125 322.226562 275.128906 322.8125 275.425781 323.304688 L 280.320312 330.742188 C 280.613281 331.234375 281.199219 331.625 281.789062 331.722656 C 282.375 331.820312 282.964844 331.722656 283.453125 331.332031 L 295.300781 322.519531 C 296.28125 321.835938 296.476562 320.367188 295.789062 319.386719 L 290.699219 312.335938 C 290.308594 311.847656 289.816406 311.554688 289.230469 311.457031 C 288.640625 311.359375 288.054688 311.554688 287.566406 311.945312 L 286.488281 312.828125 L 282.472656 307.246094 L 290.109375 300.882812 L 294.8125 305.777344 L 293.734375 306.753906 C 293.242188 307.148438 293.046875 307.734375 292.949219 308.324219 C 292.949219 308.910156 293.144531 309.496094 293.539062 309.890625 L 299.414062 316.546875 C 299.804688 317.035156 300.390625 317.230469 300.980469 317.332031 C 301.566406 317.332031 302.152344 317.132812 302.644531 316.644531 L 313.121094 306.265625 C 314 305.386719 314 304.015625 313.121094 303.132812 L 307.050781 296.867188 C 306.65625 296.476562 306.070312 296.179688 305.484375 296.179688 C 304.894531 296.179688 304.308594 296.378906 303.917969 296.867188 L 302.9375 297.847656 L 298.238281 292.851562 L 304.894531 285.507812 L 310.183594 289.71875 L 309.300781 290.796875 C 308.910156 291.285156 308.714844 291.875 308.8125 292.460938 C 308.8125 293.046875 309.105469 293.636719 309.59375 293.929688 L 316.351562 299.707031 C 316.839844 300.097656 317.429688 300.292969 318.015625 300.195312 C 318.601562 300.097656 319.191406 299.804688 319.582031 299.316406 L 328.589844 287.566406 C 329.375 286.585938 329.175781 285.214844 328.199219 284.433594 L 321.34375 279.046875 C 320.855469 278.65625 320.269531 278.558594 319.679688 278.558594 C 319.09375 278.65625 318.503906 278.949219 318.210938 279.4375 L 317.429688 280.515625 L 312.042969 276.304688 L 317.625 268.082031 L 323.5 271.507812 L 322.714844 272.683594 C 322.421875 273.171875 322.324219 273.757812 322.421875 274.347656 C 322.519531 274.933594 322.910156 275.425781 323.402344 275.71875 L 330.941406 280.515625 C 331.429688 280.808594 332.113281 280.90625 332.703125 280.808594 C 333.289062 280.613281 333.78125 280.320312 334.074219 279.730469 L 341.320312 266.90625 C 341.90625 265.828125 341.515625 264.457031 340.535156 263.871094 L 332.996094 259.464844 C 332.507812 259.171875 331.820312 259.074219 331.234375 259.269531 C 330.644531 259.464844 330.15625 259.855469 329.863281 260.347656 L 329.175781 261.519531 L 323.304688 258.09375 L 327.707031 249.183594 L 333.976562 251.730469 L 333.386719 253.003906 C 333.09375 253.492188 333.09375 254.175781 333.289062 254.667969 C 333.484375 255.253906 333.878906 255.644531 334.464844 255.941406 L 342.589844 259.5625 C 343.179688 259.855469 343.765625 259.855469 344.355469 259.5625 C 344.941406 259.367188 345.332031 258.878906 345.625 258.289062 L 351.011719 244.582031 C 351.5 243.40625 350.914062 242.132812 349.738281 241.742188 L 341.613281 238.511719 C 341.023438 238.316406 340.4375 238.316406 339.851562 238.511719 C 339.261719 238.707031 338.871094 239.195312 338.675781 239.785156 L 338.183594 241.058594 L 331.820312 238.414062 L 334.953125 229.015625 L 341.515625 230.679688 L 341.121094 232.050781 C 340.925781 232.636719 341.023438 233.222656 341.320312 233.714844 C 341.613281 234.203125 342.101562 234.59375 342.6875 234.792969 L 351.207031 237.238281 C 351.796875 237.433594 352.382812 237.335938 352.96875 237.042969 C 353.460938 236.75 353.851562 236.257812 354.046875 235.671875 L 357.472656 221.277344 C 357.769531 220.105469 356.984375 218.929688 355.808594 218.636719 L 347.390625 216.480469 C 346.800781 216.285156 346.214844 216.382812 345.625 216.773438 C 345.136719 217.070312 344.746094 217.558594 344.648438 218.242188 L 344.355469 219.613281 L 337.695312 217.949219 L 339.457031 208.160156 L 346.214844 208.84375 L 346.019531 210.214844 C 345.921875 210.804688 346.117188 211.390625 346.410156 211.878906 C 346.800781 212.371094 347.292969 212.664062 347.878906 212.761719 L 356.691406 214.035156 C 357.277344 214.132812 357.867188 213.9375 358.355469 213.542969 C 358.84375 213.152344 359.136719 212.566406 359.234375 211.976562 L 360.605469 197.289062 C 360.804688 197.191406 359.921875 196.117188 358.746094 196.019531 Z M 355.125 210.3125 L 350.816406 209.726562 L 351.011719 208.257812 C 351.109375 207.667969 350.914062 207.082031 350.621094 206.59375 C 350.226562 206.101562 349.738281 205.808594 349.054688 205.710938 L 337.988281 204.535156 C 336.816406 204.4375 335.738281 205.222656 335.542969 206.398438 L 332.996094 220.203125 C 332.800781 221.378906 333.484375 222.453125 334.660156 222.746094 L 345.527344 225.488281 C 346.117188 225.683594 346.703125 225.585938 347.292969 225.195312 C 347.78125 224.902344 348.171875 224.316406 348.269531 223.726562 L 348.5625 222.355469 L 352.675781 223.335938 L 350.328125 233.324219 L 346.214844 232.148438 L 346.605469 230.679688 C 346.800781 230.089844 346.703125 229.503906 346.410156 228.917969 C 346.117188 228.425781 345.625 228.035156 345.039062 227.839844 L 334.171875 225.097656 C 333.09375 224.804688 331.917969 225.488281 331.527344 226.566406 L 327.121094 239.882812 C 326.730469 240.960938 327.316406 242.230469 328.394531 242.625 L 338.773438 246.933594 C 339.359375 247.128906 339.949219 247.128906 340.535156 246.933594 C 341.121094 246.636719 341.515625 246.246094 341.710938 245.660156 L 342.199219 244.386719 L 346.117188 245.953125 L 342.394531 255.449219 L 338.480469 253.6875 L 339.066406 252.316406 C 339.359375 251.730469 339.359375 251.140625 339.066406 250.554688 C 338.871094 249.96875 338.382812 249.574219 337.792969 249.28125 L 327.414062 245.070312 C 326.339844 244.679688 325.066406 245.070312 324.574219 246.148438 L 318.308594 258.78125 C 317.820312 259.855469 318.210938 261.128906 319.191406 261.714844 L 328.882812 267.394531 C 329.375 267.6875 330.058594 267.789062 330.644531 267.589844 C 331.234375 267.394531 331.722656 267.003906 332.015625 266.515625 L 332.703125 265.339844 L 336.324219 267.492188 L 331.332031 276.402344 L 327.707031 274.054688 L 328.492188 272.78125 C 328.785156 272.292969 328.882812 271.605469 328.785156 271.019531 C 328.6875 270.429688 328.296875 269.941406 327.707031 269.648438 L 318.015625 264.066406 C 317.035156 263.480469 315.761719 263.773438 315.078125 264.753906 L 307.148438 276.402344 C 306.460938 277.382812 306.65625 278.65625 307.636719 279.4375 L 316.449219 286.390625 C 316.9375 286.78125 317.527344 286.878906 318.113281 286.878906 C 318.699219 286.78125 319.289062 286.488281 319.582031 286 L 320.367188 284.921875 L 323.695312 287.46875 L 317.527344 295.59375 L 314.195312 292.753906 L 315.175781 291.578125 C 315.566406 291.089844 315.761719 290.503906 315.664062 289.914062 C 315.566406 289.328125 315.273438 288.742188 314.785156 288.347656 L 305.972656 281.496094 C 305.089844 280.808594 303.71875 280.90625 302.9375 281.789062 L 293.441406 292.167969 C 292.65625 293.046875 292.65625 294.320312 293.441406 295.203125 L 301.175781 303.328125 C 301.566406 303.71875 302.152344 304.015625 302.742188 304.015625 C 303.328125 304.015625 303.917969 303.71875 304.308594 303.328125 L 305.289062 302.351562 L 308.222656 305.386719 L 300.980469 312.53125 L 298.140625 309.300781 L 299.316406 308.324219 C 299.804688 307.929688 300 307.34375 300.097656 306.757812 C 300.097656 306.167969 299.902344 305.582031 299.511719 305.089844 L 291.777344 297.0625 C 290.992188 296.179688 289.621094 296.179688 288.738281 296.867188 L 277.871094 305.875 C 276.992188 306.65625 276.796875 307.929688 277.480469 308.910156 L 284.039062 318.015625 C 284.433594 318.503906 284.921875 318.800781 285.507812 318.898438 C 286.097656 318.996094 286.683594 318.800781 287.171875 318.40625 L 288.25 317.527344 L 290.699219 320.953125 L 282.472656 327.023438 L 280.027344 323.402344 L 281.300781 322.519531 C 281.789062 322.226562 282.179688 321.636719 282.277344 321.050781 C 282.375 320.464844 282.277344 319.875 281.886719 319.386719 L 275.328125 310.378906 C 274.640625 309.398438 273.367188 309.203125 272.390625 309.792969 L 260.445312 317.132812 C 259.464844 317.722656 259.074219 318.996094 259.660156 320.070312 L 264.851562 330.058594 C 265.144531 330.546875 265.632812 331.039062 266.21875 331.136719 C 266.808594 331.332031 267.394531 331.234375 267.984375 330.941406 L 269.15625 330.253906 L 271.117188 333.976562 L 262.109375 338.871094 L 260.246094 334.953125 L 261.617188 334.269531 C 262.207031 333.976562 262.597656 333.484375 262.792969 332.996094 C 262.988281 332.410156 262.890625 331.820312 262.597656 331.234375 L 257.410156 321.34375 C 256.820312 320.367188 255.644531 319.875 254.570312 320.367188 L 241.644531 326.042969 C 240.566406 326.535156 240.078125 327.707031 240.46875 328.785156 L 244.289062 339.359375 C 244.484375 339.949219 244.875 340.4375 245.464844 340.632812 C 246.050781 340.925781 246.636719 340.925781 247.226562 340.632812 L 248.5 340.144531 L 249.96875 344.058594 L 240.371094 347.683594 L 239.097656 343.570312 L 240.566406 343.082031 C 241.15625 342.886719 241.644531 342.492188 241.9375 341.90625 C 242.230469 341.320312 242.230469 340.730469 242.035156 340.144531 L 238.21875 329.667969 C 237.828125 328.589844 236.652344 328.003906 235.574219 328.296875 L 222.0625 332.113281 C 220.984375 332.410156 220.203125 333.582031 220.496094 334.660156 L 222.746094 345.625 C 222.847656 346.214844 223.238281 346.703125 223.726562 347.09375 C 224.214844 347.390625 224.902344 347.488281 225.488281 347.390625 L 226.859375 347.09375 L 227.742188 351.207031 L 217.753906 353.460938 L 217.070312 349.152344 L 218.539062 348.859375 C 219.125 348.757812 219.710938 348.464844 220.007812 347.878906 C 220.300781 347.390625 220.496094 346.800781 220.300781 346.214844 L 217.949219 335.347656 C 217.753906 334.171875 216.578125 333.484375 215.503906 333.582031 L 201.5 335.445312 C 200.328125 335.640625 199.542969 336.617188 199.542969 337.792969 L 200.226562 349.054688 C 200.226562 349.640625 200.523438 350.226562 201.011719 350.621094 C 201.5 351.011719 202.089844 351.207031 202.675781 351.109375 L 204.046875 351.011719 L 204.339844 355.222656 L 194.15625 356.003906 L 194.058594 351.695312 L 195.527344 351.695312 C 196.117188 351.695312 196.703125 351.402344 197.09375 351.011719 C 197.488281 350.523438 197.683594 349.933594 197.683594 349.347656 L 196.898438 338.183594 C 196.800781 337.011719 195.824219 336.128906 194.648438 336.128906 L 180.546875 336.03125 C 179.375 336.03125 178.394531 336.914062 178.296875 338.085938 L 177.414062 349.25 C 177.414062 349.835938 177.609375 350.425781 178.003906 350.914062 C 178.394531 351.402344 178.980469 351.597656 179.570312 351.695312 L 180.941406 351.792969 L 180.644531 356.003906 L 170.464844 355.417969 L 170.953125 351.109375 L 172.421875 351.304688 C 173.007812 351.402344 173.597656 351.207031 174.085938 350.816406 C 174.574219 350.425781 174.871094 349.835938 174.871094 349.25 L 175.652344 338.085938 C 175.75 336.914062 174.871094 335.933594 173.792969 335.738281 L 159.890625 333.679688 C 158.714844 333.484375 157.636719 334.269531 157.441406 335.445312 L 154.992188 346.410156 C 154.894531 346.996094 154.992188 347.585938 155.289062 348.074219 C 155.582031 348.5625 156.167969 348.957031 156.753906 349.054688 L 158.125 349.25 L 157.246094 353.363281 L 147.257812 351.304688 L 148.335938 347.09375 L 149.804688 347.488281 C 150.390625 347.683594 150.980469 347.585938 151.566406 347.191406 C 152.054688 346.898438 152.449219 346.3125 152.546875 345.722656 L 154.894531 334.855469 C 155.089844 333.679688 154.503906 332.605469 153.328125 332.210938 L 139.816406 328.296875 C 138.738281 328.003906 137.46875 328.589844 137.074219 329.667969 L 133.160156 340.242188 C 132.964844 340.828125 132.964844 341.417969 133.257812 342.003906 C 133.550781 342.589844 134.039062 342.984375 134.53125 343.179688 L 135.804688 343.570312 L 134.335938 347.488281 L 124.640625 344.058594 L 126.304688 340.046875 L 127.675781 340.632812 C 128.265625 340.828125 128.851562 340.828125 129.4375 340.632812 C 130.027344 340.4375 130.417969 339.949219 130.613281 339.359375 L 134.433594 328.882812 C 134.824219 327.808594 134.335938 326.535156 133.257812 326.140625 L 120.429688 320.367188 C 119.355469 319.875 118.082031 320.265625 117.589844 321.34375 L 112.304688 331.234375 C 112.011719 331.722656 111.914062 332.410156 112.109375 332.996094 C 112.304688 333.582031 112.695312 334.074219 113.285156 334.269531 L 114.554688 334.855469 L 112.597656 338.578125 L 103.492188 333.878906 L 105.644531 330.15625 L 106.917969 330.941406 C 107.410156 331.234375 108.09375 331.332031 108.679688 331.136719 C 109.269531 330.941406 109.757812 330.546875 110.050781 330.058594 L 115.242188 320.167969 C 115.828125 319.191406 115.4375 317.820312 114.457031 317.230469 L 102.609375 309.691406 C 101.632812 309.105469 100.359375 309.300781 99.671875 310.28125 L 93.015625 319.289062 C 92.625 319.777344 92.527344 320.367188 92.625 320.953125 C 92.722656 321.539062 93.113281 322.03125 93.601562 322.421875 L 94.777344 323.203125 L 92.332031 326.632812 L 84.007812 320.660156 L 86.652344 317.230469 L 87.828125 318.210938 C 88.316406 318.601562 88.902344 318.800781 89.492188 318.699219 C 90.078125 318.601562 90.664062 318.308594 90.960938 317.820312 L 97.519531 308.8125 C 98.203125 307.832031 98.007812 306.558594 97.128906 305.777344 L 86.359375 296.671875 C 85.476562 295.886719 84.105469 295.984375 83.324219 296.769531 L 75.488281 304.796875 C 75.097656 305.1875 74.804688 305.777344 74.902344 306.460938 C 74.902344 307.050781 75.195312 307.636719 75.585938 308.027344 L 76.566406 308.910156 L 73.628906 311.945312 L 66.1875 304.894531 L 69.320312 301.859375 L 70.398438 302.9375 C 70.789062 303.328125 71.378906 303.621094 71.964844 303.621094 C 72.550781 303.621094 73.140625 303.328125 73.53125 302.9375 L 81.265625 294.910156 C 82.050781 294.027344 82.148438 292.753906 81.363281 291.875 L 71.964844 281.398438 C 71.179688 280.515625 69.910156 280.417969 68.929688 281.101562 L 60.019531 287.957031 C 59.53125 288.347656 59.234375 288.839844 59.136719 289.523438 C 59.039062 290.109375 59.234375 290.699219 59.628906 291.1875 L 60.507812 292.265625 L 57.179688 294.8125 L 50.816406 286.78125 L 54.339844 284.234375 L 55.222656 285.507812 C 55.613281 286 56.101562 286.292969 56.691406 286.390625 C 57.277344 286.488281 57.867188 286.292969 58.355469 285.902344 L 67.167969 279.046875 C 68.046875 278.363281 68.34375 276.992188 67.65625 276.109375 L 59.824219 264.359375 C 59.136719 263.382812 57.867188 263.085938 56.886719 263.675781 L 47.09375 269.253906 C 46.605469 269.550781 46.214844 270.039062 46.019531 270.625 C 45.824219 271.214844 45.921875 271.800781 46.3125 272.390625 L 46.996094 273.5625 L 43.375 275.621094 L 38.183594 266.808594 L 42.003906 264.75 L 42.6875 266.121094 C 42.984375 266.613281 43.472656 267.101562 44.058594 267.199219 C 44.648438 267.394531 45.234375 267.296875 45.824219 267.003906 L 55.515625 261.421875 C 56.496094 260.835938 56.886719 259.5625 56.398438 258.484375 L 50.328125 245.757812 C 49.835938 244.679688 48.5625 244.191406 47.488281 244.679688 L 37.011719 248.792969 C 36.421875 248.988281 36.03125 249.476562 35.738281 250.066406 C 35.542969 250.652344 35.542969 251.238281 35.738281 251.828125 L 36.324219 253.101562 L 32.410156 254.667969 L 28.492188 245.265625 L 32.605469 243.796875 L 33.09375 245.265625 C 33.289062 245.855469 33.679688 246.34375 34.269531 246.539062 C 34.855469 246.835938 35.445312 246.835938 36.03125 246.539062 L 46.410156 242.332031 C 47.488281 241.9375 48.074219 240.664062 47.683594 239.589844 L 43.375 226.175781 C 42.984375 225.097656 41.90625 224.414062 40.730469 224.707031 L 29.765625 227.351562 C 29.175781 227.449219 28.6875 227.839844 28.394531 228.425781 C 28.101562 228.917969 28.003906 229.601562 28.199219 230.1875 L 28.589844 231.460938 L 24.476562 232.441406 L 21.933594 222.550781 L 26.140625 221.671875 L 26.4375 223.140625 C 26.535156 223.726562 26.925781 224.214844 27.414062 224.609375 C 27.90625 224.902344 28.589844 225 29.175781 224.902344 L 40.046875 222.160156 C 41.21875 221.867188 41.90625 220.789062 41.710938 219.613281 L 39.359375 206.300781 C 39.164062 205.125 38.085938 204.339844 36.914062 204.4375 L 25.75 205.515625 C 25.164062 205.613281 24.574219 205.90625 24.183594 206.398438 C 23.792969 206.886719 23.695312 207.472656 23.695312 208.0625 L 23.890625 209.433594 L 19.679688 209.824219 L 18.503906 199.640625 L 22.8125 199.347656 L 22.910156 200.816406 C 22.910156 201.402344 23.203125 201.992188 23.695312 202.382812 C 24.183594 202.773438 24.773438 202.96875 25.359375 202.871094 L 36.421875 201.695312 C 37.597656 201.597656 38.480469 200.621094 38.382812 199.445312 L 38.183594 185.542969 C 38.183594 184.367188 37.207031 183.386719 36.03125 183.386719 L 24.773438 182.898438 C 24.183594 182.898438 23.597656 183.09375 23.105469 183.484375 C 22.714844 183.878906 22.421875 184.464844 22.421875 185.050781 L 22.421875 186.421875 L 18.210938 186.226562 L 18.503906 176.042969 L 22.8125 176.339844 L 22.714844 177.808594 C 22.714844 178.394531 22.910156 178.980469 23.304688 179.472656 C 23.695312 179.960938 24.28125 180.15625 24.871094 180.253906 L 36.03125 180.644531 C 37.207031 180.644531 38.183594 179.863281 38.285156 178.6875 L 39.851562 164.6875 C 39.949219 163.511719 39.164062 162.433594 37.988281 162.238281 L 26.925781 160.183594 C 26.339844 160.085938 25.75 160.183594 25.261719 160.574219 C 24.773438 160.964844 24.476562 161.457031 24.378906 162.042969 L 24.183594 163.414062 L 20.070312 162.628906 L 21.734375 152.546875 L 25.945312 153.425781 L 25.652344 155.1875 C 25.554688 155.777344 25.652344 156.363281 25.945312 156.953125 C 26.238281 157.441406 26.828125 157.832031 27.414062 157.929688 L 38.382812 159.890625 C 39.554688 160.085938 40.632812 159.398438 40.925781 158.222656 L 44.453125 144.613281 C 44.746094 143.441406 44.058594 142.363281 42.984375 141.972656 L 32.3125 138.445312 C 31.722656 138.25 31.136719 138.347656 30.546875 138.542969 C 30.058594 138.839844 29.570312 139.328125 29.472656 139.914062 L 29.078125 141.1875 L 25.066406 139.914062 L 28.101562 130.125 L 32.210938 131.59375 L 31.722656 133.0625 C 31.527344 133.648438 31.527344 134.234375 31.820312 134.824219 C 32.113281 135.410156 32.605469 135.804688 33.09375 136 L 43.667969 139.425781 C 44.746094 139.816406 46.019531 139.230469 46.410156 138.152344 L 51.796875 125.128906 C 52.285156 124.054688 51.796875 122.78125 50.71875 122.292969 L 40.632812 117.296875 C 40.046875 117.003906 39.457031 117.003906 38.871094 117.199219 C 38.285156 117.394531 37.792969 117.789062 37.597656 118.375 L 37.011719 119.648438 L 33.191406 117.789062 L 37.597656 108.582031 L 41.417969 110.640625 L 40.730469 112.011719 C 40.4375 112.5 40.339844 113.183594 40.535156 113.773438 C 40.730469 114.359375 41.121094 114.851562 41.710938 115.046875 L 51.695312 119.941406 C 52.773438 120.429688 54.046875 120.039062 54.632812 119.058594 L 61.78125 106.917969 C 62.371094 105.941406 62.074219 104.570312 61.097656 103.980469 L 51.796875 97.617188 C 51.304688 97.324219 50.71875 97.128906 50.128906 97.324219 C 49.542969 97.421875 49.054688 97.8125 48.660156 98.304688 L 47.976562 99.476562 L 44.453125 97.128906 L 50.128906 88.609375 L 53.65625 91.15625 L 52.773438 92.332031 C 52.382812 92.820312 52.285156 93.40625 52.382812 93.996094 C 52.480469 94.582031 52.871094 95.167969 53.363281 95.464844 L 62.566406 101.730469 C 63.542969 102.414062 64.816406 102.21875 65.601562 101.238281 L 74.316406 90.175781 C 75 89.296875 74.902344 87.925781 74.019531 87.140625 L 65.699219 79.601562 C 65.207031 79.210938 64.621094 79.015625 64.035156 79.015625 C 63.445312 79.015625 62.859375 79.308594 62.46875 79.796875 L 61.585938 80.875 L 58.453125 78.035156 L 65.207031 70.398438 L 68.34375 73.433594 L 67.265625 74.511719 C 66.875 74.902344 66.578125 75.488281 66.675781 76.175781 C 66.675781 76.761719 66.972656 77.351562 67.460938 77.742188 L 75.785156 85.183594 C 76.664062 85.964844 77.9375 85.964844 78.820312 85.183594 L 89 75.488281 C 89.882812 74.707031 89.882812 73.335938 89.195312 72.453125 L 82.050781 63.839844 C 81.65625 63.347656 81.070312 63.054688 80.484375 63.054688 C 79.894531 63.054688 79.308594 63.25 78.820312 63.640625 L 77.839844 64.523438 L 75.097656 61.292969 L 82.832031 54.632812 L 85.476562 58.0625 L 84.300781 58.941406 C 83.8125 59.335938 83.519531 59.824219 83.421875 60.507812 C 83.324219 61.097656 83.519531 61.683594 83.910156 62.171875 L 91.058594 70.691406 C 91.839844 71.574219 93.113281 71.769531 94.09375 71.082031 L 105.546875 62.859375 C 106.527344 62.171875 106.722656 60.902344 106.136719 59.921875 L 100.261719 50.328125 C 99.96875 49.835938 99.476562 49.445312 98.792969 49.347656 C 98.203125 49.25 97.617188 49.347656 97.128906 49.640625 L 95.953125 50.425781 L 93.699219 46.898438 L 102.316406 41.417969 L 104.472656 45.136719 L 103.199219 45.921875 C 102.707031 46.214844 102.316406 46.703125 102.121094 47.292969 C 101.925781 47.878906 102.023438 48.464844 102.414062 49.054688 L 108.289062 58.550781 C 108.878906 59.53125 110.148438 59.921875 111.226562 59.335938 L 123.660156 52.773438 C 124.738281 52.1875 125.128906 51.011719 124.640625 49.933594 L 120.136719 39.652344 C 119.941406 39.066406 119.453125 38.675781 118.863281 38.480469 C 118.277344 38.285156 117.6875 38.285156 117.101562 38.578125 L 115.828125 39.164062 L 114.164062 35.347656 L 123.464844 31.136719 L 125.03125 35.148438 L 123.660156 35.738281 C 123.074219 35.933594 122.683594 36.421875 122.390625 37.011719 C 122.191406 37.597656 122.191406 38.183594 122.390625 38.773438 L 126.894531 48.957031 C 127.382812 50.03125 128.558594 50.523438 129.632812 50.128906 L 142.851562 45.429688 C 143.929688 45.039062 144.515625 43.863281 144.222656 42.6875 L 141.1875 31.820312 C 140.992188 31.234375 140.601562 30.746094 140.109375 30.449219 C 139.621094 30.15625 138.9375 30.15625 138.347656 30.253906 L 137.074219 30.644531 L 135.902344 26.632812 L 145.691406 23.695312 L 146.671875 27.90625 L 145.203125 28.296875 C 144.613281 28.394531 144.125 28.785156 143.832031 29.375 C 143.539062 29.863281 143.441406 30.546875 143.636719 31.136719 L 146.671875 41.808594 C 146.964844 42.886719 148.140625 43.570312 149.214844 43.375 L 163.023438 40.535156 C 164.195312 40.339844 164.980469 39.261719 164.785156 38.085938 L 163.316406 26.925781 C 163.21875 26.339844 162.925781 25.75 162.433594 25.457031 C 161.945312 25.066406 161.359375 24.96875 160.769531 25.066406 L 159.398438 25.261719 L 158.8125 21.050781 L 168.898438 19.484375 L 169.289062 23.792969 L 167.820312 23.890625 C 167.230469 23.988281 166.644531 24.28125 166.253906 24.773438 C 165.863281 25.261719 165.664062 25.847656 165.765625 26.4375 L 167.332031 37.5 C 167.527344 38.675781 168.503906 39.457031 169.679688 39.457031 L 183.78125 38.578125 C 184.953125 38.480469 185.835938 37.5 185.835938 36.324219 L 185.933594 25.066406 C 185.933594 24.476562 185.738281 23.890625 185.25 23.5 C 184.855469 23.105469 184.269531 22.8125 183.582031 22.910156 L 182.210938 22.910156 L 182.210938 18.699219 L 192.394531 18.601562 L 192.199219 22.910156 L 190.730469 22.8125 C 190.144531 22.8125 189.554688 23.007812 189.066406 23.402344 C 188.675781 23.792969 188.382812 24.378906 188.382812 24.96875 L 188.382812 36.128906 C 188.382812 37.304688 189.261719 38.285156 190.4375 38.382812 L 204.4375 39.457031 C 205.613281 39.554688 206.59375 38.675781 206.789062 37.597656 L 208.453125 26.4375 C 208.550781 25.847656 208.355469 25.261719 207.964844 24.773438 C 207.570312 24.28125 207.082031 23.988281 206.398438 23.890625 L 205.027344 23.792969 L 205.613281 19.582031 L 215.796875 20.953125 L 215.011719 25.261719 L 213.542969 24.96875 C 212.957031 24.871094 212.371094 24.96875 211.878906 25.359375 C 211.390625 25.75 211.097656 26.242188 211 26.828125 L 209.433594 37.890625 C 209.234375 39.066406 210.019531 40.144531 211.195312 40.339844 L 224.902344 43.375 C 226.078125 43.667969 227.152344 42.984375 227.546875 41.808594 L 230.679688 31.039062 C 230.875 30.449219 230.777344 29.863281 230.484375 29.277344 C 230.1875 28.785156 229.699219 28.394531 229.113281 28.199219 L 227.742188 27.90625 L 228.917969 23.890625 L 238.804688 26.632812 L 237.433594 30.746094 L 235.964844 30.253906 C 235.378906 30.058594 234.792969 30.15625 234.203125 30.351562 C 233.714844 30.644531 233.222656 31.136719 233.125 31.722656 L 230.089844 42.394531 C 229.796875 43.472656 230.386719 44.648438 231.460938 45.136719 L 244.679688 50.03125 C 245.757812 50.425781 247.03125 49.933594 247.519531 48.859375 L 252.121094 38.578125 C 252.414062 37.988281 252.414062 37.402344 252.121094 36.816406 C 251.925781 36.226562 251.4375 35.835938 250.847656 35.542969 L 249.574219 35.050781 L 251.339844 31.234375 L 260.738281 35.347656 L 258.78125 39.261719 L 257.410156 38.578125 C 256.820312 38.285156 256.234375 38.285156 255.644531 38.480469 C 255.058594 38.675781 254.570312 39.066406 254.375 39.652344 L 249.871094 49.835938 C 249.378906 50.914062 249.871094 52.1875 250.847656 52.675781 L 263.285156 59.335938 C 264.261719 59.921875 265.632812 59.53125 266.222656 58.550781 L 272.191406 49.054688 C 272.488281 48.5625 272.585938 47.878906 272.488281 47.292969 C 272.390625 46.703125 271.996094 46.214844 271.410156 45.921875 L 270.234375 45.234375 L 272.488281 41.710938 L 281.199219 46.996094 L 278.753906 50.621094 L 277.480469 49.738281 C 276.992188 49.445312 276.402344 49.25 275.816406 49.445312 C 275.230469 49.542969 274.738281 49.933594 274.347656 50.425781 L 268.472656 59.921875 C 267.886719 60.902344 268.082031 62.171875 269.058594 62.859375 L 280.417969 71.179688 C 281.398438 71.867188 282.667969 71.671875 283.453125 70.789062 L 290.699219 62.273438 C 291.089844 61.78125 291.285156 61.195312 291.1875 60.605469 C 291.089844 60.019531 290.796875 59.433594 290.308594 59.039062 L 289.230469 58.160156 L 291.972656 54.929688 L 299.902344 61.390625 L 296.964844 64.621094 L 295.886719 63.640625 C 295.398438 63.25 294.8125 63.054688 294.222656 63.054688 C 293.636719 63.054688 293.046875 63.347656 292.65625 63.839844 L 285.507812 72.355469 C 284.726562 73.238281 284.824219 74.609375 285.703125 75.390625 L 295.789062 85.28125 C 296.671875 86.0625 297.945312 86.160156 298.824219 85.378906 L 307.246094 77.9375 C 307.734375 77.546875 307.929688 76.957031 308.027344 76.371094 C 308.027344 75.785156 307.832031 75.195312 307.441406 74.707031 L 306.460938 73.726562 L 309.59375 70.886719 L 316.546875 78.425781 L 313.21875 81.167969 L 312.238281 79.992188 C 311.847656 79.503906 311.261719 79.210938 310.671875 79.210938 C 310.085938 79.210938 309.496094 79.40625 309.007812 79.796875 L 300.683594 87.238281 C 299.804688 88.023438 299.707031 89.296875 300.390625 90.273438 L 309.007812 101.4375 C 309.691406 102.316406 311.0625 102.609375 312.042969 101.925781 L 321.441406 95.660156 C 321.933594 95.367188 322.324219 94.777344 322.421875 94.191406 C 322.519531 93.601562 322.421875 93.015625 322.03125 92.527344 L 321.246094 91.449219 L 324.773438 89.097656 L 330.546875 97.519531 L 326.828125 99.773438 L 326.042969 98.5 C 325.75 98.007812 325.164062 97.617188 324.574219 97.519531 C 323.988281 97.421875 323.402344 97.519531 322.910156 97.8125 L 313.707031 104.078125 C 312.730469 104.765625 312.433594 106.039062 313.023438 107.015625 L 319.972656 119.257812 C 320.5625 120.234375 321.835938 120.625 322.910156 120.136719 L 332.996094 115.242188 C 333.582031 114.949219 333.976562 114.457031 334.171875 113.96875 C 334.367188 113.382812 334.269531 112.792969 333.976562 112.207031 L 333.289062 111.03125 L 337.109375 109.171875 L 341.710938 118.277344 L 337.792969 120.039062 L 337.207031 118.667969 C 336.914062 118.082031 336.519531 117.6875 335.933594 117.492188 C 335.347656 117.296875 334.757812 117.296875 334.171875 117.589844 L 324.183594 122.488281 C 323.105469 122.976562 322.617188 124.25 323.105469 125.328125 L 328.296875 138.445312 C 328.6875 139.523438 329.960938 140.109375 331.039062 139.71875 L 341.710938 136.292969 C 342.296875 136.097656 342.789062 135.703125 342.984375 135.117188 C 343.277344 134.53125 343.277344 133.941406 343.082031 133.355469 L 342.589844 132.082031 L 346.605469 130.808594 L 349.835938 140.503906 L 345.625 141.675781 L 345.234375 140.207031 C 345.039062 139.621094 344.648438 139.132812 344.15625 138.839844 C 343.667969 138.542969 342.984375 138.542969 342.394531 138.640625 L 331.820312 142.070312 C 330.746094 142.460938 330.058594 143.539062 330.351562 144.710938 L 333.679688 158.421875 C 333.976562 159.59375 335.050781 160.28125 336.226562 160.085938 L 347.292969 158.222656 C 347.878906 158.125 348.367188 157.734375 348.761719 157.246094 C 349.054688 156.757812 349.25 156.167969 349.054688 155.582031 L 348.761719 154.210938 L 352.871094 153.523438 L 354.734375 163.609375 L 350.425781 164.195312 L 350.226562 162.730469 C 350.128906 162.140625 349.835938 161.554688 349.347656 161.261719 C 348.859375 160.867188 348.269531 160.769531 347.683594 160.867188 L 336.714844 162.828125 C 335.542969 163.023438 334.757812 164.097656 334.855469 165.273438 L 336.226562 179.277344 C 336.324219 180.449219 337.304688 181.332031 338.480469 181.234375 L 349.738281 180.941406 C 350.328125 180.941406 350.914062 180.644531 351.304688 180.253906 C 351.695312 179.765625 351.894531 179.175781 351.894531 178.589844 L 351.796875 177.21875 L 356.003906 177.121094 L 356.496094 187.304688 L 352.1875 187.304688 L 352.1875 185.835938 C 352.1875 185.25 351.992188 184.660156 351.5 184.269531 C 351.109375 183.878906 350.523438 183.582031 349.835938 183.679688 L 338.675781 184.074219 C 337.5 184.074219 336.617188 185.050781 336.519531 186.226562 L 335.933594 200.328125 C 335.933594 201.5 336.714844 202.480469 337.890625 202.675781 L 349.054688 203.949219 C 349.640625 204.046875 350.226562 203.851562 350.71875 203.460938 C 351.207031 203.066406 351.5 202.480469 351.5 201.894531 L 351.597656 200.523438 L 355.808594 201.011719 Z M 187.5 46.214844 C 109.5625 46.214844 46.214844 109.5625 46.214844 187.5 C 46.214844 265.4375 109.5625 328.785156 187.5 328.785156 C 265.4375 328.785156 328.785156 265.4375 328.785156 187.5 C 328.785156 109.5625 265.339844 46.214844 187.5 46.214844 Z M 187.5 324.28125 C 112.109375 324.28125 50.71875 262.890625 50.71875 187.5 C 50.71875 112.109375 112.109375 50.71875 187.5 50.71875 C 262.890625 50.71875 324.28125 112.011719 324.28125 187.402344 C 324.28125 262.890625 262.890625 324.28125 187.5 324.28125 Z M 88.511719 148.921875 C 90.273438 162.53125 95.367188 168.40625 102.511719 173.007812 C 104.667969 174.378906 104.863281 178.199219 105.058594 182.210938 C 105.351562 188.480469 105.742188 196.996094 115.925781 196.996094 L 118.082031 196.996094 C 115.730469 199.445312 114.359375 202.773438 114.359375 206.496094 C 114.359375 214.230469 120.625 220.398438 128.265625 220.398438 L 137.664062 220.398438 L 137.664062 297.746094 C 137.664062 298.824219 138.542969 299.707031 139.621094 299.707031 C 140.699219 299.707031 141.578125 298.824219 141.578125 297.746094 L 141.578125 220.398438 L 236.554688 220.398438 L 236.554688 296.179688 C 236.554688 297.257812 237.433594 298.140625 238.511719 298.140625 C 239.589844 298.140625 240.46875 297.257812 240.46875 296.179688 L 240.46875 220.398438 L 246.835938 220.398438 C 254.570312 220.398438 260.738281 214.132812 260.738281 206.496094 C 260.738281 202.871094 259.269531 199.542969 257.015625 196.996094 L 259.171875 196.996094 C 269.355469 196.996094 269.746094 188.480469 270.039062 182.210938 C 270.234375 178.199219 270.429688 174.378906 272.585938 173.007812 C 279.730469 168.40625 284.824219 162.53125 286.585938 148.921875 L 286.878906 146.378906 L 88.21875 146.378906 Z M 246.734375 215.894531 L 128.164062 215.894531 C 122.976562 215.894531 118.667969 211.683594 118.667969 206.398438 C 118.667969 201.207031 122.78125 196.996094 127.96875 196.898438 L 246.933594 196.898438 C 252.121094 196.996094 256.234375 201.207031 256.234375 206.398438 C 256.234375 211.683594 252.023438 215.894531 246.734375 215.894531 Z M 281.59375 150.785156 C 279.535156 162.042969 274.738281 166.058594 269.941406 169.191406 C 265.925781 171.835938 265.632812 177.21875 265.4375 181.917969 C 265.046875 189.359375 264.359375 192.394531 259.074219 192.394531 L 115.828125 192.394531 C 110.445312 192.394531 109.757812 189.359375 109.464844 181.917969 C 109.269531 177.21875 108.976562 171.835938 104.960938 169.191406 C 100.164062 166.058594 95.367188 162.042969 93.308594 150.785156 Z M 267.589844 134.234375 C 269.15625 134.234375 270.332031 132.964844 270.332031 131.496094 L 270.332031 98.203125 C 270.332031 96.636719 269.058594 95.464844 267.589844 95.464844 C 266.023438 95.464844 264.851562 96.734375 264.851562 98.203125 L 264.851562 131.496094 C 264.851562 132.964844 266.121094 134.234375 267.589844 134.234375 Z M 240.960938 134.234375 C 242.527344 134.234375 243.699219 132.964844 243.699219 131.496094 L 243.699219 80.089844 C 243.699219 78.523438 242.429688 77.351562 240.960938 77.351562 C 239.394531 77.351562 238.21875 78.621094 238.21875 80.089844 L 238.21875 131.496094 C 238.121094 132.964844 239.394531 134.234375 240.960938 134.234375 Z M 214.230469 134.234375 C 215.796875 134.234375 216.972656 132.964844 216.972656 131.496094 L 216.972656 70.496094 C 216.972656 68.929688 215.699219 67.753906 214.230469 67.753906 C 212.664062 67.753906 211.488281 69.027344 211.488281 70.496094 L 211.488281 131.496094 C 211.390625 132.964844 212.664062 134.234375 214.230469 134.234375 Z M 187.5 134.234375 C 189.066406 134.234375 190.242188 132.964844 190.242188 131.496094 L 190.242188 67.558594 C 190.242188 65.992188 188.96875 64.816406 187.5 64.816406 C 185.933594 64.816406 184.757812 66.089844 184.757812 67.558594 L 184.757812 131.496094 C 184.660156 132.964844 185.933594 134.234375 187.5 134.234375 Z M 160.769531 134.234375 C 162.335938 134.234375 163.511719 132.964844 163.511719 131.496094 L 163.511719 70.496094 C 163.511719 68.929688 162.238281 67.753906 160.769531 67.753906 C 159.203125 67.753906 158.027344 69.027344 158.027344 70.496094 L 158.027344 131.496094 C 158.027344 132.964844 159.203125 134.234375 160.769531 134.234375 Z M 134.039062 134.234375 C 135.605469 134.234375 136.78125 132.964844 136.78125 131.496094 L 136.78125 80.089844 C 136.78125 78.523438 135.507812 77.351562 134.039062 77.351562 C 132.472656 77.351562 131.300781 78.621094 131.300781 80.089844 L 131.300781 131.496094 C 131.300781 132.964844 132.472656 134.234375 134.039062 134.234375 Z M 107.3125 134.234375 C 108.878906 134.234375 110.050781 132.964844 110.050781 131.496094 L 110.050781 98.203125 C 110.050781 96.636719 108.78125 95.464844 107.3125 95.464844 C 105.742188 95.464844 104.570312 96.734375 104.570312 98.203125 L 104.570312 131.496094 C 104.570312 132.964844 105.84375 134.234375 107.3125 134.234375 Z M 160.085938 228.132812 C 154.40625 228.132812 149.804688 232.734375 149.804688 238.414062 L 149.804688 304.992188 C 149.804688 306.070312 150.683594 306.953125 151.761719 306.953125 C 152.839844 306.953125 153.71875 306.070312 153.71875 304.992188 L 153.71875 238.414062 C 153.71875 234.890625 156.558594 232.050781 160.085938 232.050781 C 163.609375 232.050781 166.449219 234.890625 166.449219 238.414062 L 166.449219 308.617188 C 166.449219 309.691406 167.332031 310.574219 168.40625 310.574219 C 169.484375 310.574219 170.367188 309.691406 170.367188 308.617188 L 170.367188 238.414062 C 170.367188 232.734375 165.765625 228.132812 160.085938 228.132812 Z M 160.085938 228.132812 " fill-opacity="1" fill-rule="nonzero"/><g clip-path="url(#f92eb9e9e2)"><g clip-path="url(#c2cadf3ccf)"><path fill="#000000" d="M 60.210938 60.210938 L 314.789062 60.210938 L 314.789062 314.789062 L 60.210938 314.789062 Z M 60.210938 60.210938 " fill-opacity="1" fill-rule="nonzero"/></g></g></svg>